<svg width="1000" height="1000" viewBox="0 0 1000 1000" fill="none" xmlns="http://www.w3.org/2000/svg">
<rect width="1000" height="1000" fill="white"/>
<rect width="1000" height="1000" fill="#343434"/>
<path d="M485.568 776.968V760.233C485.568 757.536 484.035 756.188 480.971 756.188H463.317C454.245 756.188 447.808 754.226 444.008 750.303C440.33 746.257 438.491 740.495 438.491 733.017V708.743C438.491 693.541 447.441 685.94 465.34 685.94H490.533C508.432 685.94 517.382 693.541 517.382 708.743V722.903H485.2V712.973C485.2 710.276 483.668 708.927 480.603 708.927H475.27C472.205 708.927 470.673 710.276 470.673 712.973V730.443C470.673 733.14 472.205 734.488 475.27 734.488H492.556C501.628 734.488 508.064 736.389 511.865 740.189C515.788 743.989 517.749 749.568 517.749 756.923V781.197C517.749 796.399 508.8 804 490.901 804H465.891C447.87 804 438.859 796.399 438.859 781.197V767.037H471.04V776.968C471.04 779.665 472.573 781.013 475.638 781.013H480.971C484.035 781.013 485.568 779.665 485.568 776.968Z" fill="#B282FB"/>
<path d="M577.186 735.224H565.6V776.968C565.6 779.665 567.133 781.013 570.198 781.013H577.002V804H561.371C543.349 804 534.339 796.399 534.339 781.197V735.224H524.224V712.237H534.339V694.216H565.6V712.237H577.186V735.224Z" fill="#B282FB"/>
<path d="M628.995 712.237H659.705V804H628.443V794.07C626.114 800.69 620.72 804 612.26 804H608.95C592.645 804 584.493 796.399 584.493 781.197V735.04C584.493 719.838 592.645 712.237 608.95 712.237H612.26C621.7 712.237 627.278 716.16 628.995 724.006V712.237ZM620.352 781.013H623.478C626.788 781.013 628.443 779.174 628.443 775.497V740.741C628.443 737.063 626.788 735.224 623.478 735.224H620.352C617.287 735.224 615.754 736.572 615.754 739.27V776.968C615.754 779.665 617.287 781.013 620.352 781.013Z" fill="#B282FB"/>
<path d="M720.852 735.224H709.267V776.968C709.267 779.665 710.8 781.013 713.865 781.013H720.669V804H705.038C687.016 804 678.005 796.399 678.005 781.197V735.224H667.891V712.237H678.005V694.216H709.267V712.237H720.852V735.224Z" fill="#B282FB"/>
<path d="M280 685.94H312.181V804H280V685.94Z" fill="white"/>
<path d="M382.775 685.94H416.244L387.188 804H349.858L320.803 685.94H354.271L368.431 764.831L382.775 685.94Z" fill="white"/>
<path d="M378.654 435.994C378.654 502.613 431.621 558.873 496.959 558.873C562.297 558.873 615.263 502.613 615.263 435.994C615.263 358.21 531.236 299.788 496.959 197C462.684 299.79 378.654 358.21 378.654 435.994ZM397.454 430.363C397.454 364.589 465.015 314.36 497.838 230.971C479.881 320.36 420.083 382.038 431.009 447.607C438.942 495.202 476.721 531.409 521.433 537.793C515.324 538.964 509.047 539.606 502.624 539.606C444.54 539.606 397.454 489.591 397.454 430.363Z" fill="url(#paint0_linear_41:40)"/>
<path d="M378.654 435.994C378.654 502.613 431.621 558.873 496.959 558.873C562.297 558.873 615.263 502.613 615.263 435.994C615.263 358.21 531.236 299.788 496.959 197C462.684 299.79 378.654 358.21 378.654 435.994ZM397.454 430.363C397.454 364.589 465.015 314.36 497.838 230.971C479.881 320.36 420.083 382.038 431.009 447.607C438.942 495.202 476.721 531.409 521.433 537.793C515.324 538.964 509.047 539.606 502.624 539.606C444.54 539.606 397.454 489.591 397.454 430.363Z" fill="#B282FB"/>
<path fill-rule="evenodd" clip-rule="evenodd" d="M379.835 550.38C377.364 539.461 375.916 531.349 377.12 517.492C377.494 508.161 375.341 501.312 373.956 496.3C373.624 495.06 373.302 494.432 372.85 493.32C369.742 485.335 363.6 482.323 360.669 484.384C359.18 485.503 360.788 494.546 361.179 498.337C361.999 511.905 360.809 519.295 361.693 532.947C369.12 540.437 375.72 547.232 379.835 550.38ZM358.536 529.797C357.157 512.027 357.384 493.161 355.071 476.351C352.983 461.487 343.099 455.376 338.847 458.41C337.007 459.781 339.26 471.627 339.548 475.546C340.379 487.672 339.757 500.086 339.648 512.463C340.471 513.063 338.746 511.583 342.096 514.369C345.438 517.221 352.784 524.013 358.536 529.797ZM336.479 510.195C335.756 496.394 335.616 480.188 334.265 467.482C332.605 451.37 323.77 444.57 317.451 447.597C315.365 448.977 317.381 461.854 317.533 466.074C317.953 477.955 317.659 491.811 317.164 503.89C320.267 503.62 327.169 503.972 336.479 510.195Z" fill="white"/>
<path fill-rule="evenodd" clip-rule="evenodd" d="M474.98 648.808C484.556 643.571 483.591 636.544 483.634 630.418C483.823 603.191 468.755 584.931 421.586 568.293C404.281 562.222 388.886 561.933 378.263 554.071C361.588 541.735 339.237 513.235 326.128 509.21C307.236 503.358 313.53 519.557 313.53 519.557C313.53 519.557 336.736 555.714 339.887 559.432C343.088 563.142 357.325 575.566 361.59 576.726C357.241 576.97 346.387 569.53 336.816 560.969C333.919 558.416 331.767 554.176 329.147 550.168C317.729 532.622 308.956 523.958 307.995 514.842C307.095 505.757 315.346 504.409 315.346 504.409C315.346 504.409 315.05 493.526 314.078 464.676C313.512 446.482 302.291 437.908 296.829 441.012C294.382 442.388 295.617 456.972 295.446 461.729C294.804 482.247 286.158 511.568 291.432 525.525C298.192 543.287 312.159 585.673 334.662 604.033C397.094 654.948 467.409 652.948 474.98 648.808Z" fill="white"/>
<path fill-rule="evenodd" clip-rule="evenodd" d="M614.038 550.38C616.509 539.461 617.957 531.348 616.753 517.492C616.379 508.161 618.532 501.311 619.917 496.3C620.249 495.06 620.571 494.432 621.023 493.32C624.131 485.335 630.273 482.323 633.204 484.383C634.693 485.502 633.085 494.546 632.694 498.336C631.874 511.905 633.064 519.295 632.18 532.947C624.753 540.436 618.153 547.232 614.038 550.38ZM635.337 529.797C636.716 512.027 636.489 493.161 638.802 476.351C640.89 461.487 650.774 455.375 655.026 458.41C656.866 459.781 654.613 471.626 654.325 475.545C653.494 487.671 654.117 500.086 654.225 512.463C653.402 513.063 655.127 511.583 651.777 514.369C648.435 517.221 641.089 524.013 635.337 529.797ZM657.394 510.195C658.117 496.394 658.257 480.188 659.608 467.482C661.268 451.37 670.103 444.57 676.422 447.597C678.508 448.976 676.492 461.854 676.341 466.074C675.92 477.955 676.214 491.811 676.709 503.89C673.606 503.619 666.704 503.972 657.394 510.195Z" fill="white"/>
<path fill-rule="evenodd" clip-rule="evenodd" d="M519.063 648.808C509.487 643.571 510.452 636.544 510.409 630.418C510.22 603.191 525.288 584.931 572.457 568.293C589.762 562.222 605.157 561.933 615.779 554.071C632.455 541.735 654.806 513.235 667.915 509.21C686.807 503.358 680.513 519.557 680.513 519.557C680.513 519.557 657.307 555.714 654.156 559.432C650.955 563.142 636.718 575.566 632.453 576.726C636.802 576.97 647.656 569.53 657.227 560.969C660.124 558.416 662.276 554.176 664.896 550.168C676.314 532.622 685.087 523.958 686.048 514.842C686.948 505.757 678.697 504.409 678.697 504.409C678.697 504.409 678.993 493.526 679.965 464.676C680.531 446.482 691.752 437.908 697.214 441.012C699.661 442.388 698.426 456.972 698.597 461.729C699.239 482.247 707.885 511.568 702.61 525.525C695.85 543.287 681.884 585.673 659.381 604.033C596.949 654.948 526.634 652.948 519.063 648.808Z" fill="white"/>
<defs>
<linearGradient id="paint0_linear_41:40" x1="496.959" y1="197" x2="496.959" y2="558.873" gradientUnits="userSpaceOnUse">
<stop stop-color="#B282FB"/>
<stop offset="1" stop-color="#7749BB"/>
</linearGradient>
</defs>
</svg>
